<svg width="240" height="240" viewBox="0 0 240 240" fill="none" xmlns="http://www.w3.org/2000/svg">
<mask id="mask0_2288_30258" style="mask-type:luminance" maskUnits="userSpaceOnUse" x="2" y="2" width="236" height="236">
<path d="M2 2H238V238H2V2Z" fill="white"/>
</mask>
<g mask="url(#mask0_2288_30258)">
<path d="M71.3322 139.794H168.668C169.502 139.794 170.298 139.438 170.853 138.822C171.407 138.201 171.677 137.372 171.587 136.547C170.232 123.892 164.269 112.204 154.79 103.63C148.827 98.2405 141.774 94.3587 134.176 92.2069C140.651 88.344 145.448 81.9121 147.078 74.2148C150.491 74.011 153.207 71.1813 153.207 67.7213C153.207 64.9344 151.448 62.5503 148.983 61.6213C148.789 49.862 141.594 39.5104 130.769 35.1972C130.536 34.2777 130.11 33.4246 129.494 32.6709C127.745 30.538 124.616 29.3057 120.199 29.0071C120.066 28.9976 119.934 28.9976 119.801 29.0071C115.383 29.3057 112.255 30.538 110.506 32.6709C109.89 33.4246 109.463 34.2777 109.231 35.1972C98.4056 39.5104 91.2107 49.862 91.0164 61.6213C88.5517 62.5503 86.7933 64.9344 86.7933 67.7213C86.7933 71.1813 89.5091 74.011 92.9217 74.2148C94.557 81.9121 99.3488 88.344 105.823 92.2069C98.2255 94.3587 91.1728 98.2405 85.2102 103.63C75.7307 112.204 69.7681 123.892 68.4125 136.547C68.3225 137.372 68.5926 138.201 69.1472 138.822C69.7017 139.438 70.498 139.794 71.3322 139.794ZM108.122 97.6528L115.872 111.299L110.625 113.725L107.397 97.8519C107.639 97.7808 107.88 97.7144 108.122 97.6528ZM120 96.1077C121.962 96.1077 123.896 96.2356 125.797 96.4726L120 106.677L114.203 96.4726C116.104 96.2356 118.038 96.1077 120 96.1077ZM132.603 97.8519L129.375 113.725L124.128 111.299L131.878 97.6528C132.119 97.7144 132.361 97.7808 132.603 97.8519ZM165.288 133.921H122.934V117.214L130.276 120.617C131.091 120.991 132.034 120.977 132.835 120.569C133.636 120.167 134.21 119.418 134.39 118.536L138.191 99.8284C152.093 105.786 162.511 118.394 165.288 133.921ZM109.554 41.4774L110.866 51.5778C111.075 53.1893 112.549 54.3221 114.156 54.1135C115.763 53.905 116.895 52.4309 116.687 50.8241L114.909 37.1121C114.848 36.6381 114.966 36.4912 115.047 36.3964C115.511 35.8276 117.08 35.1024 120 34.8749C122.915 35.1024 124.488 35.8276 124.953 36.3964C125.034 36.4912 125.152 36.6381 125.09 37.1121L123.313 50.8241C123.104 52.4309 124.237 53.905 125.844 54.1135C125.972 54.1278 126.1 54.1372 126.228 54.1372C127.678 54.1372 128.939 53.0566 129.133 51.5778L130.446 41.4774C137.883 45.2313 142.774 52.7295 143.097 61.2042H136.442V49.3501C136.442 47.7291 135.129 46.4114 133.508 46.4114C131.887 46.4114 130.574 47.7291 130.574 49.3501V61.2089H109.426V49.3501C109.426 47.7291 108.113 46.4114 106.492 46.4114C104.871 46.4114 103.558 47.7291 103.558 49.3501V61.2089H96.9031C97.2254 52.7295 102.117 45.2313 109.554 41.4774ZM93.3057 67.0767H106.487H106.492C106.492 67.0767 106.496 67.0767 106.501 67.0767H133.499C133.503 67.0767 133.503 67.0767 133.508 67.0767H133.513H146.694C147.04 67.0767 147.334 67.3706 147.334 67.7213C147.334 68.0673 147.04 68.3612 146.694 68.3612H93.3057C92.9597 68.3612 92.6658 68.0673 92.6658 67.7213C92.6658 67.3706 92.9597 67.0767 93.3057 67.0767ZM98.9697 74.2337H141.03C138.471 83.5521 129.949 90.2399 120 90.2399C110.051 90.2399 101.529 83.5521 98.9697 74.2337ZM101.809 99.8284L105.61 118.536C105.79 119.418 106.364 120.167 107.165 120.569C107.582 120.783 108.037 120.887 108.487 120.887C108.909 120.887 109.331 120.797 109.724 120.617L117.066 117.214V133.921H74.7116C77.4891 118.394 87.9071 105.786 101.809 99.8284ZM61.2887 146.42C43.4815 146.42 28.9968 160.905 28.9968 178.712C28.9968 196.519 43.4815 211.004 61.2887 211.004C79.0959 211.004 93.5806 196.519 93.5806 178.712C93.5806 160.905 79.0959 146.42 61.2887 146.42ZM61.2887 205.131C46.7187 205.131 34.8694 193.282 34.8694 178.712C34.8694 164.142 46.7187 152.293 61.2887 152.293C75.8587 152.293 87.708 164.142 87.708 178.712C87.708 193.282 75.8587 205.131 61.2887 205.131ZM73.4746 158.464L71.2706 159.445C70.171 158.871 69.0334 158.402 67.8532 158.028L66.9906 155.776C66.5546 154.643 65.4644 153.899 64.251 153.899H58.3264C57.113 153.899 56.0228 154.643 55.5868 155.776L54.7242 158.028C53.544 158.402 52.4017 158.871 51.3068 159.445L49.1028 158.464C47.9937 157.971 46.695 158.213 45.8371 159.07L41.6472 163.26C40.7893 164.118 40.5476 165.417 41.0405 166.526L42.0169 168.73C41.4481 169.825 40.9742 170.967 40.6045 172.147L38.3531 173.01C37.2203 173.446 36.4714 174.536 36.4714 175.75V181.674C36.4714 182.888 37.2203 183.978 38.3531 184.414L40.6045 185.276C40.9742 186.457 41.4481 187.599 42.0169 188.694L41.0405 190.898C40.5476 192.007 40.7893 193.306 41.6472 194.163L45.8371 198.353C46.695 199.211 47.9937 199.453 49.1028 198.96L51.3068 197.979C52.4017 198.552 53.544 199.022 54.7242 199.396L55.5868 201.648C56.0228 202.78 57.113 203.524 58.3264 203.524H64.251C65.4644 203.524 66.5546 202.78 66.9906 201.648L67.8532 199.396C69.0334 199.026 70.1757 198.552 71.2706 197.984L73.4746 198.96C74.5837 199.453 75.8824 199.211 76.7403 198.353L80.9302 194.163C81.7881 193.306 82.0298 192.007 81.5369 190.898L80.5558 188.694C81.1293 187.599 81.6032 186.457 81.9729 185.276L84.2243 184.414C85.3571 183.978 86.1013 182.888 86.1013 181.674V175.75C86.1013 174.536 85.3571 173.446 84.2243 173.01L81.9729 172.147C81.6032 170.967 81.1293 169.825 80.5605 168.73L81.5369 166.526C82.0298 165.417 81.7881 164.118 80.9302 163.26L76.7403 159.07C75.8824 158.213 74.5837 157.971 73.4746 158.464ZM78.4892 177.096L80.2335 177.769V179.66L78.4892 180.328C77.5839 180.679 76.9109 181.447 76.6881 182.39C76.2995 184.016 75.6549 185.566 74.778 186.997C74.2661 187.822 74.1998 188.845 74.5932 189.727L75.3515 191.438L74.0149 192.775L72.3039 192.016C71.4223 191.623 70.3985 191.694 69.5738 192.201C68.1471 193.083 66.5925 193.723 64.9667 194.111C64.0235 194.334 63.251 195.007 62.9049 195.912L62.2319 197.657H60.3455L59.6724 195.912C59.3264 195.007 58.5539 194.334 57.6107 194.111C55.9849 193.723 54.435 193.078 53.0036 192.201C52.1789 191.689 51.1599 191.623 50.2735 192.016L48.5625 192.775L47.2259 191.438L47.9842 189.727C48.3776 188.845 48.3065 187.822 47.7994 186.997C46.9225 185.57 46.2779 184.02 45.8893 182.39C45.6665 181.447 44.9935 180.679 44.0882 180.328L42.3439 179.66V177.769L44.0882 177.096C44.9935 176.75 45.6665 175.977 45.8893 175.034C46.2779 173.408 46.9225 171.858 47.7994 170.427C48.3065 169.602 48.3776 168.583 47.9842 167.697L47.2259 165.986L48.5625 164.649L50.2735 165.407C51.1551 165.801 52.1789 165.734 53.0036 165.223C54.4303 164.346 55.9849 163.701 57.6107 163.312C58.5539 163.09 59.3217 162.417 59.6724 161.511L60.3407 159.767H62.2319L62.9049 161.511C63.251 162.417 64.0235 163.09 64.9667 163.312C66.5925 163.701 68.1424 164.346 69.5738 165.223C70.3985 165.734 71.4175 165.801 72.3039 165.407L74.0149 164.649L75.3515 165.986L74.5932 167.697C74.1998 168.578 74.2709 169.602 74.778 170.427C75.6549 171.858 76.2995 173.408 76.6881 175.034C76.9109 175.977 77.5839 176.75 78.4892 177.096ZM61.2887 165.45C53.9753 165.45 48.0269 171.398 48.0269 178.712C48.0269 186.025 53.9753 191.974 61.2887 191.974C68.6021 191.974 74.5505 186.025 74.5505 178.712C74.5505 171.398 68.6021 165.45 61.2887 165.45ZM61.2887 186.106C57.2125 186.106 53.8947 182.788 53.8947 178.712C53.8947 174.636 57.2125 171.318 61.2887 171.318C65.3649 171.318 68.6827 174.636 68.6827 178.712C68.6827 182.788 65.3649 186.106 61.2887 186.106ZM178.711 146.42C160.904 146.42 146.419 160.905 146.419 178.712C146.419 196.519 160.904 211.004 178.711 211.004C196.518 211.004 211.003 196.519 211.003 178.712C211.003 160.905 196.518 146.42 178.711 146.42ZM178.711 205.131C164.141 205.131 152.292 193.282 152.292 178.712C152.292 164.142 164.141 152.293 178.711 152.293C193.281 152.293 205.13 164.142 205.13 178.712C205.13 193.282 193.281 205.131 178.711 205.131ZM178.711 165.45C171.398 165.45 165.449 171.398 165.449 178.712C165.449 186.025 171.398 191.974 178.711 191.974C186.025 191.974 191.973 186.025 191.973 178.712C191.973 171.398 186.025 165.45 178.711 165.45ZM178.711 186.106C174.635 186.106 171.317 182.788 171.317 178.712C171.317 174.636 174.635 171.318 178.711 171.318C182.787 171.318 186.105 174.636 186.105 178.712C186.105 182.788 182.787 186.106 178.711 186.106ZM201.647 173.01L199.4 172.147C199.026 170.967 198.552 169.825 197.983 168.73L198.959 166.526C199.452 165.417 199.21 164.118 198.353 163.26L194.167 159.07C193.305 158.213 192.006 157.976 190.897 158.464L188.693 159.445C187.598 158.876 186.456 158.402 185.28 158.028L184.413 155.781C183.977 154.643 182.887 153.899 181.673 153.899H175.753C174.535 153.899 173.45 154.643 173.014 155.781L172.147 158.028C170.971 158.402 169.829 158.876 168.729 159.445L166.525 158.464C165.416 157.971 164.117 158.213 163.26 159.07L159.07 163.26C158.212 164.118 157.97 165.417 158.463 166.526L159.444 168.73C158.875 169.83 158.401 170.972 158.027 172.147L155.78 173.01C154.643 173.446 153.899 174.536 153.899 175.75V181.674C153.899 182.888 154.647 183.978 155.78 184.414L158.027 185.276C158.401 186.457 158.871 187.599 159.444 188.699L158.463 190.898C157.97 192.007 158.212 193.306 159.07 194.168L163.26 198.353C164.117 199.211 165.416 199.453 166.525 198.96L168.729 197.984C169.829 198.552 170.966 199.026 172.147 199.396L173.009 201.648C173.45 202.78 174.535 203.529 175.749 203.529H181.673C182.887 203.529 183.977 202.78 184.413 201.648L185.276 199.401C186.456 199.026 187.598 198.552 188.698 197.984L190.897 198.96C192.006 199.453 193.305 199.211 194.167 198.353L198.353 194.168C199.21 193.306 199.452 192.007 198.959 190.898L197.983 188.694C198.552 187.599 199.026 186.457 199.4 185.276L201.647 184.414C202.78 183.978 203.528 182.888 203.528 181.674V175.75C203.528 174.536 202.78 173.446 201.647 173.01ZM197.656 179.66L195.912 180.328C195.006 180.679 194.333 181.447 194.111 182.39C193.722 184.016 193.077 185.566 192.2 186.997C191.693 187.822 191.622 188.845 192.016 189.727L192.774 191.438L191.437 192.775L189.731 192.016C188.845 191.623 187.821 191.694 187.001 192.201C185.57 193.083 184.02 193.723 182.389 194.111C181.446 194.334 180.678 195.007 180.327 195.912L179.659 197.657H177.768L177.095 195.912C176.749 195.007 175.976 194.334 175.033 194.111C173.407 193.723 171.857 193.078 170.426 192.201C169.601 191.689 168.582 191.623 167.696 192.016L165.985 192.775L164.648 191.438L165.407 189.727C165.8 188.845 165.729 187.822 165.222 186.997C164.345 185.57 163.7 184.02 163.312 182.39C163.089 181.447 162.416 180.679 161.511 180.328L159.766 179.66V177.769L161.511 177.096C162.416 176.75 163.089 175.977 163.312 175.034C163.7 173.408 164.345 171.858 165.222 170.427C165.729 169.602 165.8 168.583 165.407 167.697L164.648 165.986L165.985 164.649L167.696 165.407C168.578 165.801 169.601 165.734 170.426 165.223C171.857 164.346 173.407 163.701 175.033 163.312C175.976 163.09 176.744 162.417 177.095 161.511L177.768 159.767H179.654L180.327 161.511C180.673 162.417 181.446 163.09 182.389 163.312C184.015 163.701 185.565 164.346 186.996 165.223C187.821 165.734 188.84 165.801 189.726 165.407L191.437 164.649L192.774 165.986L192.016 167.697C191.622 168.578 191.693 169.602 192.2 170.427C193.082 171.858 193.722 173.408 194.111 175.034C194.333 175.977 195.006 176.75 195.912 177.096L197.656 177.769V179.66ZM114.734 142.434C115.881 143.581 115.881 145.439 114.734 146.586L96.8083 164.516C96.2348 165.09 95.4859 165.374 94.7323 165.374C93.9834 165.374 93.2298 165.09 92.6563 164.516C91.5093 163.369 91.5093 161.511 92.6563 160.364L110.587 142.434C111.729 141.292 113.592 141.292 114.734 142.434ZM147.343 164.516C146.77 165.09 146.016 165.374 145.267 165.374C144.514 165.374 143.765 165.09 143.191 164.516L125.266 146.586C124.119 145.439 124.119 143.581 125.266 142.434C126.408 141.292 128.266 141.292 129.413 142.434L147.343 160.364C148.49 161.511 148.49 163.369 147.343 164.516Z" fill="white"/>
</g>
</svg>
